<svg id="Layer_1" data-name="Layer 1" xmlns="http://www.w3.org/2000/svg" xmlns:xlink="http://www.w3.org/1999/xlink" viewBox="0 0 261.5 261.51"><defs><style>.cls-1{fill:#de272c;}.cls-2{fill:url(#linear-gradient);}</style><linearGradient id="linear-gradient" x1="76.1" y1="120.11" x2="-77.06" y2="172.58" gradientTransform="translate(113.02 -93.38) rotate(9.52)" gradientUnits="userSpaceOnUse"><stop offset="0"/><stop offset="0.02" stop-color="#180405"/><stop offset="0.07" stop-color="#410b0d"/><stop offset="0.12" stop-color="#671214"/><stop offset="0.17" stop-color="#87181b"/><stop offset="0.23" stop-color="#a31d20"/><stop offset="0.3" stop-color="#b92025"/><stop offset="0.38" stop-color="#ca2328"/><stop offset="0.48" stop-color="#d5252a"/><stop offset="0.62" stop-color="#dc272c"/><stop offset="1" stop-color="#de272c"/></linearGradient></defs><title>Asset 1</title><path class="cls-1" d="M213.61,261.51a48.11,48.11,0,0,1-48.06-47.89L165.33,96l-.09-47.88V48c0-3.61-.66-23.34-16.74-36.95A47.67,47.67,0,0,0,122.12.17L213.35,0a48.1,48.1,0,0,1,48.06,47.89,39.19,39.19,0,0,1-.22,4.48l.31,161.07A48.13,48.13,0,0,1,213.61,261.51Z"/><path class="cls-2" d="M165.33,96l-117.27.21A48,48,0,0,1,47.88.3l74.2-.14h0A47.67,47.67,0,0,1,148.5,11.05c16.08,13.61,16.72,33.34,16.74,37v.16Z"/><circle class="cls-1" cx="35.16" cy="225.91" r="35.14"/><path class="cls-1" d="M138.28,175.46A45.25,45.25,0,0,1,125.61,200L106,219.5A44.66,44.66,0,0,1,89.1,230.13a54.12,54.12,0,0,0-58-58.18,45.15,45.15,0,0,1,10.68-16.9l19.59-19.52a45.47,45.47,0,0,1,76.94,39.93Z"/></svg>